<svg width="49" height="50" viewBox="0 0 49 50" fill="none" xmlns="http://www.w3.org/2000/svg">
<rect width="49" height="50" rx="6" fill="#6C6DE5"/>
<g clip-path="url(#clip0_171_7966)">
<path d="M31.2354 25L28.2354 30.1962L31.492 31.6936C32.4304 32.1252 33.5431 31.7711 34.0596 30.8765L34.7367 29.7037C35.2532 28.8092 35.0035 27.6685 34.1605 27.0716L31.2354 25Z" fill="#E9E9FF"/>
<path d="M18.7952 25L21.7952 30.1962L18.5386 31.6936C17.6001 32.1252 16.4874 31.7711 15.971 30.8765L15.2939 29.7037C14.7774 28.8092 15.0271 27.6685 15.87 27.0716L18.7952 25Z" fill="#E9E9FF"/>
<path d="M22 20H28L27.6801 16.801C27.5779 15.7786 26.7175 15 25.69 15H24.31C23.2825 15 22.4221 15.7786 22.3199 16.801L22 20Z" fill="#E9E9FF"/>
<path d="M22 30H28L27.6801 33.199C27.5779 34.2214 26.7175 35 25.69 35H24.31C23.2825 35 22.4221 34.2214 22.3199 33.199L22 30Z" fill="#E9E9FF"/>
<path d="M21.7728 19.7762L18.7728 24.9724L15.8689 22.9139C15.0265 22.3168 14.7772 21.1765 15.2934 20.2823L15.9714 19.1081C16.4877 18.2138 17.5998 17.8596 18.5382 18.2906L21.7728 19.7762Z" fill="#E9E9FF"/>
<path d="M28.2577 19.7762L31.2577 24.9724L34.1617 22.9139C35.0041 22.3168 35.2534 21.1765 34.7371 20.2823L34.0592 19.1081C33.5429 18.2138 32.4307 17.8596 31.4924 18.2906L28.2577 19.7762Z" fill="#E9E9FF"/>
<circle cx="25" cy="25" r="7" fill="#E9E9FF"/>
<circle cx="25" cy="25" r="4" fill="#9999EE"/>
</g>
<defs>
<clipPath id="clip0_171_7966">
<rect width="20" height="20" fill="white" transform="translate(15 15)"/>
</clipPath>
</defs>
</svg>
