<svg width="49" height="50" viewBox="0 0 49 50" fill="none" xmlns="http://www.w3.org/2000/svg">
<rect width="49" height="50" rx="6" fill="#5B5CE2"/>
<path d="M25 17.8823L20.0629 23.5952C19.6505 24.0725 18.9148 24.137 18.4198 23.7392C17.9248 23.3415 17.8579 22.6321 18.2704 22.1548L24.1037 15.4048C24.5702 14.8651 25.4298 14.8651 25.8963 15.4048L31.7296 22.1548C32.1421 22.6321 32.0752 23.3415 31.5802 23.7392C31.0852 24.137 30.3495 24.0725 29.9371 23.5952L25 17.8823Z" fill="#9999EE"/>
<path d="M15.0911 24.4037C14.783 23.7427 15.2943 23 16.0575 23H33.9425C34.7057 23 35.217 23.7426 34.909 24.4036L30.8049 33.2109C30.2981 34.2983 29.161 35 27.9055 35H22.0953C20.8399 35 19.7029 34.2984 19.1961 33.2111L15.0911 24.4037Z" fill="#E9E9FF"/>
<path fill-rule="evenodd" clip-rule="evenodd" d="M25 32C26.6569 32 28 30.8807 28 29.5C28 28.1193 26.6569 27 25 27C23.3431 27 22 28.1193 22 29.5C22 30.8807 23.3431 32 25 32Z" fill="#9999EE"/>
</svg>
